<?xml version="1.0" standalone="no"?>
<!DOCTYPE svg PUBLIC "-//W3C//DTD SVG 20010904//EN"
 "http://www.w3.org/TR/2001/REC-SVG-20010904/DTD/svg10.dtd">
<svg version="1.0" xmlns="http://www.w3.org/2000/svg"
 width="628.000000pt" height="628.000000pt" viewBox="0 0 628.000000 628.000000"
 preserveAspectRatio="xMidYMid meet">
<metadata>
Created by potrace 1.11, written by Peter Selinger 2001-2013
</metadata>
<g transform="translate(0.000000,628.000000) scale(0.100000,-0.100000)"
fill="#000000" stroke="none">
<path d="M30 6083 c-19 -41 -25 -190 -8 -238 12 -37 17 -41 58 -47 25 -4 103
-16 175 -27 72 -10 156 -29 187 -41 130 -49 288 -178 355 -291 18 -30 479
-1179 1026 -2554 547 -1375 1002 -2517 1011 -2537 51 -107 149 -170 268 -171
40 0 91 5 114 11 60 17 125 65 161 119 17 27 455 1106 1003 2473 535 1334 994
2470 1021 2525 92 187 226 328 384 405 80 39 135 51 400 87 59 8 60 9 73 48
18 53 12 204 -9 236 l-16 23 -204 -5 c-268 -5 -1243 -5 -1578 1 l-265 4 -18
-39 c-24 -52 -21 -199 5 -238 18 -27 12 -26 202 -47 208 -24 299 -56 386 -137
59 -55 84 -114 76 -181 -6 -47 -1193 -3119 -1337 -3460 -45 -106 -76 -168 -81
-160 -4 7 -52 146 -107 308 -56 162 -338 977 -627 1810 -562 1618 -557 1602
-516 1667 54 85 245 140 593 168 74 6 77 8 90 38 19 47 18 216 -3 247 l-15 23
-295 -4 c-468 -6 -2326 -3 -2415 4 l-81 7 -13 -27z"/>
</g>
</svg>
