<?xml version="1.0" standalone="no"?>
<!DOCTYPE svg PUBLIC "-//W3C//DTD SVG 20010904//EN"
 "http://www.w3.org/TR/2001/REC-SVG-20010904/DTD/svg10.dtd">
<svg version="1.0" xmlns="http://www.w3.org/2000/svg"
 width="627.000000pt" height="627.000000pt" viewBox="0 0 627.000000 627.000000"
 preserveAspectRatio="xMidYMid meet">
<metadata>
Created by potrace 1.14, written by Peter Selinger 2001-2017
</metadata>
<g transform="translate(0.000000,627.000000) scale(0.100000,-0.100000)"
fill="#000000" stroke="none">
<path d="M33 6102 c-33 -21 -42 -210 -12 -274 10 -23 19 -28 51 -29 21 -1 41
-2 46 -3 4 -1 36 -6 72 -10 174 -21 272 -53 378 -124 130 -86 207 -177 264
-307 15 -33 92 -226 173 -430 80 -203 150 -379 155 -390 5 -11 43 -108 86
-215 42 -107 81 -206 87 -220 6 -14 11 -27 12 -30 1 -3 5 -14 10 -25 4 -11 43
-108 85 -215 42 -107 81 -204 85 -215 5 -11 9 -22 10 -25 1 -3 6 -16 12 -30 6
-14 27 -68 48 -120 20 -52 41 -104 46 -115 5 -11 70 -175 145 -365 75 -190
142 -358 149 -375 7 -16 68 -169 135 -340 67 -170 128 -324 136 -341 7 -17 29
-71 48 -120 147 -384 572 -1436 591 -1466 32 -48 71 -84 120 -111 34 -18 56
-22 140 -22 115 0 165 18 228 82 46 45 59 72 166 343 34 85 66 164 71 175 4
11 31 79 60 150 28 72 55 139 60 150 9 19 416 1035 890 2220 127 319 238 594
245 610 7 17 86 212 175 435 88 223 167 419 174 435 8 17 48 116 90 222 93
237 136 328 193 417 77 120 201 234 316 293 50 25 181 57 272 67 28 3 75 8
105 11 81 9 88 12 101 52 14 43 8 209 -9 240 -12 22 -12 22 -260 15 -316 -8
-1109 -8 -1500 1 l-304 6 -18 -43 c-15 -32 -19 -61 -16 -122 3 -97 24 -144 64
-145 39 -1 79 -5 142 -13 30 -4 73 -9 95 -12 181 -23 315 -97 365 -200 35 -70
25 -127 -59 -339 -38 -99 -170 -436 -291 -750 -122 -313 -232 -597 -245 -630
-13 -33 -51 -132 -85 -220 -34 -88 -72 -187 -85 -220 -13 -33 -49 -125 -80
-205 -30 -80 -60 -154 -65 -165 -5 -11 -34 -87 -65 -170 -32 -82 -63 -163 -70
-180 -8 -16 -38 -95 -69 -175 -101 -268 -267 -675 -280 -687 -2 -2 -10 18 -19
44 -61 184 -223 656 -347 1013 -67 192 -174 500 -275 790 -24 69 -82 238 -130
375 -48 138 -91 261 -95 275 -7 22 -112 321 -171 490 -11 30 -21 62 -24 70 -2
8 -26 78 -53 155 -112 317 -162 473 -162 503 0 73 48 132 135 166 56 22 183
53 245 61 29 4 62 8 73 10 10 3 67 7 126 11 58 3 108 8 109 9 31 28 39 239 12
282 l-14 22 -316 -6 c-424 -9 -1770 -9 -2155 -1 -171 4 -316 4 -322 0z"/>
</g>
</svg>
